<svg width="18" height="18" viewBox="0 0 18 18" fill="none" xmlns="http://www.w3.org/2000/svg">
<g clip-path="url(#clip0_1607_4496)">
<g clip-path="url(#clip1_1607_4496)">
<path d="M4.84842 10.0746L11.166 3.60388C11.2337 3.53455 11.7752 2.97991 12.6325 2.67948C13.8284 2.28662 15.0467 2.61015 16.0169 3.60388C17.0097 4.5976 17.303 5.82242 16.9194 7.04724C16.6487 7.92542 16.0846 8.52627 16.0169 8.5956L9.22558 15.5517C8.05232 16.7534 5.11917 18.3017 2.41165 15.5517C-0.273305 12.8016 1.26096 9.7742 2.41165 8.5956L9.6994 1.10801C9.97015 0.830695 10.3988 0.830695 10.6696 1.10801C10.9403 1.38533 10.9403 1.82442 10.6696 2.10174L3.40441 9.58933C3.2916 9.68177 1.01277 12.1083 3.40441 14.5579C5.72836 16.9383 8.00719 14.8122 8.25538 14.5579L15.0467 7.57877C15.0467 7.57877 15.4303 7.1859 15.6108 6.63127C15.8364 5.89175 15.6785 5.24468 15.0467 4.5976C13.693 3.21101 12.3844 4.3665 12.1362 4.5976L5.81862 11.0452C5.59299 11.2763 5.43505 11.6692 5.81862 12.0621C6.20218 12.4549 6.56318 12.2701 6.78881 12.0621L11.166 7.57877C11.4367 7.32456 11.888 7.32456 12.1362 7.57877C12.4069 7.85609 12.4069 8.31828 12.1362 8.5956L7.75901 13.0558C7.14981 13.6567 5.90887 14.142 4.84842 13.0558C3.76541 11.9696 4.23923 10.6755 4.84842 10.0746Z" fill="white"/>
</g>
</g>
<defs>
<clipPath id="clip0_1607_4496">
<rect width="18" height="18" fill="white"/>
</clipPath>
<clipPath id="clip1_1607_4496">
<rect width="18" height="18" fill="white"/>
</clipPath>
</defs>
</svg>
